<svg width="377" height="367" viewBox="0 0 377 367" fill="none" xmlns="http://www.w3.org/2000/svg">
    <g clip-path="url(#pattern)">
        <path d="M16.7458 164.812C7.56577 184.247 6.75689 185.345 -6.40149 208.277L-15.6611 228.979L-21.9966 242.286C-25.408 253.741 -26.8627 262.254 -26.2563 262.24C-20.8728 262.111 1.77264 256.898 7.56577 254.456C16.8251 250.549 37.2728 237.765 42.4479 232.645C50.8234 224.36 95.9631 192.6 95.9631 194.992C95.9631 195.62 95.367 196.441 94.6389 196.815C92.1152 198.114 77.1156 220.147 73.3749 228.051C71.3078 232.419 67.2925 242.432 64.4518 250.303C55.5859 274.864 47.5466 288.171 12.2813 336.66C3.80303 348.318 -8.58481 363.831 -15.2456 371.135C-25.8981 382.815 -27.3574 385.024 -27.3574 389.476V394.538L-20.3839 389.884C-16.5478 387.325 -10.0691 382.654 -5.98481 379.503C5.05238 370.988 10.7604 368.838 31.1141 365.525C44.4151 363.361 49.1732 360.959 60.8446 350.526C81.8399 331.757 121.382 306.304 157.86 288.079C184.851 274.593 199.501 264.779 210.126 253.065C222.575 239.339 224.228 234.358 231.002 190.122C233.756 172.136 237.409 157.108 240.577 150.716C241.583 148.689 309.155 -41.7651 260.169 59.8028L209.77 149.231L204.061 158.994C200.922 164.363 194.89 175.911 190.659 184.656C165.378 236.887 152.955 252.574 121.377 272.131C86.9401 293.46 79.8022 298.092 68.8032 306.255C62.3436 311.049 55.2409 316.073 53.0182 317.421L48.9794 319.869L50.5371 316.458C51.3945 314.581 54.7388 309.457 57.9686 305.07C71.1228 287.202 87.6639 263.732 91.1507 257.99C93.1913 254.629 99.1636 246.415 104.421 239.734C116.23 224.73 119.428 219.406 125.017 205.443C127.438 199.395 131.87 189.771 134.865 184.058C139.412 175.388 170.987 106.91 174.354 97.961C175.088 96.0119 185.47 69.8629 174.354 83.7382L117.954 148.62L107.326 156.997C93.7756 167.675 89.2392 170.859 73.9416 180.429C45.9302 197.951 36.4697 205.133 8.55233 230.069C0.913803 236.893 -5.3359 242.391 -5.3359 242.286C-5.3359 238.238 10.0997 203.519 18.2168 189.306C21.5935 183.395 27.162 171.824 30.5929 163.59L68.8032 83.7382L42.4479 118.08L24.3946 148.62L16.7458 164.812ZM278.435 157.48C275.873 170.8 267.38 192.831 258.097 210.234C253.54 218.776 250.181 226.07 250.631 226.444C251.078 226.818 254.064 225.398 257.265 223.288C271.936 213.616 288.098 193.509 294.693 176.726C296.675 171.686 299.916 164.537 301.9 160.84C308.939 147.714 316.992 108.715 314.613 76.8007L282.384 145.138L278.435 157.48ZM332.21 153.7C323.743 167.514 320.593 184.572 319.156 224.385C317.663 265.776 317.657 265.793 299.233 283.652C287.726 294.806 268.306 316.624 255.541 332.736C249.242 340.689 241.48 350.176 238.291 353.82C229.123 364.3 231.507 364.803 243.877 354.996C250.136 350.033 264.212 339.562 275.157 331.724C298.109 315.289 314.885 300.913 327.955 286.475C338.869 274.421 341.039 270.496 348.764 248.834C353.886 234.471 360.715 221.085 377.134 193.223L380.735 187.113L380.756 201.25C380.769 211.641 379.991 217.791 377.816 224.468C366.031 260.659 361.689 276.388 361.689 282.912C361.689 290.986 357.507 303.502 351.436 313.591C349.212 317.287 344.695 327.461 341.397 336.198C338.1 344.935 332.336 357.858 328.588 364.915C320.342 380.44 315.945 390.577 317.454 390.577C318.068 390.577 319.677 388.789 321.03 386.605C322.382 384.422 328.466 376.31 334.55 368.581C354.01 343.855 361.023 334.125 371.537 317.257C377.194 308.183 384.856 296.086 388.567 290.373C403.382 267.562 409.655 243.255 411.752 200.555C412.509 185.097 413.527 167.088 414.011 160.535L425.514 94.5791C425.816 92.848 423.665 91.8001 422.488 93.1046L410.592 109.408L378.101 148.62L371.912 156.778C368.507 161.266 363.118 169.652 359.938 175.414C350.456 192.593 345.618 200.634 345.578 199.282C345.524 197.437 352.254 168.948 354.948 159.618C358.292 148.04 375.984 72.6377 370.349 58.4152L365.191 69.8629L332.21 153.7ZM455.037 154.425C453.763 157.617 451.006 166.278 448.908 173.671C445.495 185.701 444.963 190.838 443.853 222.552C441.97 276.42 440.068 288.508 429 317.009C422.188 334.552 407.355 361.85 399.445 371.401C397.883 373.288 396.941 375.114 397.355 375.457C399.718 377.425 412.01 368.921 431.452 351.87C459.666 327.126 464.832 321.87 476.289 306.259C481.469 299.202 490.752 288.204 496.918 281.819C511.321 266.904 520.093 260.546 551.738 242.084C591.192 219.065 612.482 189.297 612.683 156.869L612.735 148.62L622.523 80.2697V58.4152L589.156 155.647C582.893 168.712 575.727 176.036 538.029 207.894C517.346 225.372 495.483 244.996 489.445 251.503C483.405 258.012 478.335 263.227 478.176 263.095C478.016 262.963 479.108 259.835 480.6 256.146C484.762 245.851 486.227 229.76 485.387 203.591C484.7 182.238 510.165 109.669 512.958 100.042C513.748 97.3173 523.715 49.7434 514.163 45.2338L457.352 148.62L455.037 154.425ZM520.325 168.579C513.597 179.557 508.348 189.144 508.662 189.885C510.042 193.139 543.48 164.555 553.002 151.981L573.375 62.5783L563.671 76.8007L532.559 148.62L520.325 168.579ZM668.681 155.23C666.698 162.605 658.744 176.912 649.936 188.946C646.739 193.315 639.585 203.763 634.038 212.164C622.261 230.005 612.835 241.995 602.324 252.508C588.828 266.006 566.84 284.367 550.34 295.915C541.458 302.131 532.54 308.726 530.521 310.57L526.851 313.922L534.686 313.09C545.707 311.918 579.885 302.187 597.329 295.253C613.326 288.897 626.426 281.013 647.969 264.782C662.327 253.963 671.198 248.199 672.2 249.035C672.516 249.296 670.154 252.244 666.952 255.584C663.751 258.923 658.824 265.054 656.004 269.208C648.432 280.361 638.02 289.137 614.093 304.537C590.806 319.524 579.396 328.979 569.442 341.536C559.504 354.075 553.548 359.262 533.341 372.984C511.282 387.962 503.391 395.833 490.581 415.628C473.302 442.333 461.704 456.542 441.708 475.506C427.775 488.721 410.673 508.494 398.374 525.608L394.863 530.497L404.335 523.727C409.545 520.003 419.753 513.145 427.02 508.487C434.287 503.829 444.857 496.406 450.51 491.992C456.162 487.578 467.126 479.734 474.873 474.563C483.357 468.896 493.932 460.17 501.47 452.613C515.124 438.924 523.907 425.173 540.93 413.788C574.325 391.453 590.947 385.143 601.335 374.531C626.489 348.84 637.825 336.334 642.315 329.32C647.678 320.946 657.242 313.894 684.751 298.031C722.384 276.329 733.328 268.62 766.454 240.475L799.056 212.775L799.119 203.916C799.154 199.044 798.865 195.056 798.477 195.056C796.365 195.056 761.605 213.451 749.471 220.99C741.251 226.097 723.016 240.111 705.959 254.428C689.81 267.982 672.303 281.737 667.055 284.991L657.512 290.91L665.586 283.134C678.165 271.02 686.364 262.444 712.404 234.161C725.708 219.71 740.731 203.78 745.789 198.76C750.848 193.739 754.775 189.457 754.518 189.243C753.537 188.427 744.973 192.214 728.116 200.916C718.501 205.881 700.333 214.64 687.743 220.381C663.916 231.249 643.301 242.402 635.123 248.852C618.999 261.568 647.626 233.317 672.296 212.164C685.4 200.929 689.864 196.151 694.562 188.335C701.442 176.888 705.87 166.884 708.76 156.258L728.116 68.4754L719.339 76.8007L672.296 148.62L668.681 155.23ZM740.595 160.756C732.941 171.122 727.822 177.304 719.339 186.428C716.678 189.291 734.696 178.375 745.668 170.478C751.247 166.463 761.11 160.763 767.587 157.812C787.91 148.552 784.68 87.2075 780.924 85.8199L767.587 120.509L740.595 160.756ZM260.757 250.902C253.504 257.489 240.134 269.699 231.045 278.035C204.374 302.5 192.124 311.419 144.236 341.25C126.165 352.507 101.799 368.114 90.0907 375.935C61.5434 395.002 39.8273 408.135 20.3559 418.109C-1.7185 429.417 -15.3087 437.19 -21.852 442.251L-27.3574 446.508V457.803V469.098L-23.1146 466.192C-5.93195 454.423 -0.247463 451.083 12.1727 445.471C36.8764 434.304 41.3262 431.832 53.6627 422.415C69.1732 410.576 66.5321 413.633 39.4382 438.877C-2.03121 477.514 -4.24217 480.106 -14.2502 501.779C-17.5079 508.836 -21.7904 517.808 -23.7664 521.718C-26.8788 527.878 -27.3574 530.714 -27.3574 542.999V557.173L-19.8833 546.89C-4.12766 525.215 3.5373 518.757 25.9258 508.295C33.3588 504.822 44.7263 499.491 51.186 496.448C57.6456 493.405 68.7606 486.721 75.8883 481.592L88.8443 472.269L81.5845 479.997C70.8556 491.419 50.1099 517.711 31.6118 543.328C16.1835 564.693 15.0399 566.74 10.7868 580.599C8.31157 588.664 4.72059 600.212 2.80766 606.261C0.894722 612.31 -1.08281 620.146 -1.58637 623.674L-2.501 630.09L4.52386 629.987L11.5473 629.885L24.2948 613.796C31.305 604.947 41.451 591.118 46.8419 583.063C59.4969 564.155 72.3208 548.605 95.232 524.387C126.008 491.854 134.787 480.872 149.684 456.279C157.371 443.589 168.233 427.666 173.821 420.897C182.7 410.14 191.112 396.049 189.469 394.682C188.712 394.051 177.187 401.406 161.294 412.665C140.344 427.504 129.166 432.846 72.7862 454.966C63.4182 458.641 45.8142 469.366 32.9184 479.252L23.4594 486.504L27.9827 481.005C42.809 462.983 80.4908 426.636 107.79 404.024C123.007 391.42 127.979 388.087 173.772 359.8C215.389 334.094 223.2 327.051 239.809 300.276C246.314 289.789 255.477 275.159 260.169 267.766C269.369 253.273 275.916 240.565 274.7 239.555C274.285 239.209 268.01 244.315 260.757 250.902ZM762.832 298.158C729.543 326.902 684.754 368.015 660.963 391.668C630.004 422.448 609.652 449.679 597.375 476.744C592.215 488.121 585.924 497.83 576.796 508.5C560.808 527.192 547.392 536.818 513.638 553.818C498.822 561.281 489.554 568.45 481.51 578.67C474.88 587.095 452.315 622.604 450.583 627.34L449.577 630.09L471.332 630.085L493.084 630.081L498.123 621.971C508.13 605.864 522.787 589.455 544.571 569.976C556.627 559.195 569.959 546.214 574.197 541.129C578.435 536.043 581.902 532.121 581.899 532.411C581.894 532.702 580.184 536.79 578.096 541.495C576.009 546.199 572.029 555.548 569.253 562.269C566.476 568.99 561.937 578.896 559.165 584.283C554.216 593.905 550.095 606.464 551.503 607.637C552.519 608.481 564.644 597.52 580.064 581.821C592.763 568.891 610.561 554.871 635.52 538.136C641.995 533.795 649.254 528.103 651.65 525.489C656.066 520.669 695.65 487.115 696.919 487.115C697.965 487.115 680.624 508.784 678.845 509.699C677.992 510.138 672.271 516.921 666.133 524.774C654.065 540.208 647.351 547.03 621.987 569.63C612.918 577.711 600.947 589.043 595.388 594.811C584.879 605.713 565.756 628.027 565.756 629.387C565.756 629.816 573.519 630.013 583.006 629.823L600.256 629.479L613.915 612.371C638.65 581.393 645.114 574.156 659.974 560.808C669.901 551.89 680.533 540.268 692.73 524.997C709.888 503.52 712.282 501.14 740.694 477.339C757.143 463.561 777.005 512.239 784.833 504.846L799.066 491.404L799.125 470.157L799.184 448.91L792.081 454.44C782.054 462.247 772.838 470.623 753.426 489.571C732.003 510.481 722.399 451.842 703.832 461.58C673.652 477.411 642.503 495.756 634.112 502.643C629.367 506.537 621.548 513.847 616.734 518.887C611.921 523.928 607.649 528.327 607.24 528.663C606.067 529.626 624.28 500.868 630.842 491.392C634.102 486.688 642.327 476.331 649.12 468.377C655.913 460.423 664.148 449.975 667.419 445.159C692.231 408.627 719.636 377.561 754.882 346.008C768.762 333.582 781.992 318.275 787.257 308.55C794.925 294.389 802.064 267.991 798.083 268.525C797.476 268.605 781.615 281.94 762.832 298.158ZM523.715 329.968C495.527 342.567 458.013 366.94 439.994 384.363C427.512 396.432 410.946 417.409 401.25 433.422C392.354 448.116 364.526 499.66 365.191 500.213C365.436 500.417 368.877 497.146 372.838 492.944C376.799 488.742 390.52 475.676 403.328 463.908C435.021 434.787 445.9 422.561 458.243 402.186C468.438 385.358 491.415 361.629 514.163 344.435C538.126 326.323 540.169 324.615 537.862 324.622C536.65 324.627 530.285 327.032 523.715 329.968ZM291.184 352.545C255.963 377.78 230.597 407.144 217.162 438.235C214.984 443.276 209.318 459.223 204.572 473.673C192.293 511.057 186.809 522.32 171.849 540.884C164.977 549.413 155.8 557.406 120.642 585.487C113.068 591.536 103.939 599.784 100.357 603.817C89.9336 615.55 79.814 627.997 79.814 629.085C79.814 629.638 88.6461 630.09 99.441 630.09H119.07L126.234 625.344C136.082 618.819 159.071 607.297 172.106 602.353C178.053 600.097 190.936 596.287 200.734 593.887C233.505 585.857 251.883 578.157 271.401 564.278C293.499 548.563 305.598 532.596 312.484 510.056C315.322 500.768 315.962 499.605 316.033 503.612C316.081 506.301 315.443 512.35 314.613 517.054C313.785 521.759 312.514 531.134 311.789 537.888C310.04 554.184 306.175 562.552 290.651 583.64C278.602 600.008 260.39 627.472 260.39 629.275C260.39 629.723 264.849 630.081 270.3 630.071L280.21 630.052L286.816 622.077C290.45 617.691 298.085 608.765 303.783 602.239C328.714 573.687 337.413 560.84 342.015 545.772C345.608 534.011 344.103 516.654 337.566 494.447C334.234 483.134 332.345 473.76 332.338 468.516C332.329 461.907 336.086 439.642 341.826 412.268C342.214 410.42 341.988 408.907 341.322 408.907C339.959 408.907 337.075 414.136 331.577 426.582C329.51 431.264 324.896 439.556 321.324 445.01C317.752 450.465 311.121 462.033 306.59 470.716C281.274 519.227 268.146 530.292 204.407 556.851L177.93 567.883L182.58 560.624C187.194 553.416 203.689 534.501 212.661 526.129C219.612 519.641 228.421 509.374 233.549 501.779C241.481 490.032 243.977 480.744 245.611 456.901C247.176 434.072 250.218 420.79 256.092 411.145C266.636 393.83 295.758 355.261 305.994 345.057C308.522 342.538 310.015 340.475 309.311 340.475C308.606 340.475 300.449 345.907 291.184 352.545ZM588.511 406.48C575.592 417.84 561.166 429.669 556.455 432.764C545.895 439.704 542.301 445.777 537.31 465.119C531.54 487.477 518.719 518.457 510.596 529.67C507.832 533.485 505.569 537.038 505.568 537.566C505.562 539.085 511.169 536.19 517.597 531.356C529.496 522.407 540.076 506.63 555.451 474.895C567.196 450.656 569.338 447.247 581.19 433.958C591.984 421.852 596.135 415.651 601.75 403.231C603.809 398.679 606.376 394.107 607.457 393.072C609.437 391.172 613.196 385.632 612.419 385.756C612.189 385.794 601.43 395.119 588.511 406.48ZM795.803 518.926C794.659 520.285 787.075 461.297 778.95 468.507C764.506 481.326 758.757 487.175 750.042 497.925C747.674 500.847 739.429 508.882 731.72 515.782C724.011 522.682 712.749 534.238 706.693 541.462C700.637 548.685 692.867 557.559 689.425 561.181C685.986 564.804 683.835 567.768 684.648 567.768C685.462 567.768 700.169 556.317 717.331 542.324C754.172 512.283 778.149 494.094 790.344 486.934L799.184 481.746V466.101C799.184 457.495 798.891 516.455 798.533 516.455C798.175 516.455 796.946 517.567 795.803 518.926ZM167.9 464.684C167.9 465.386 163.217 471.958 157.493 479.287C145.219 495.005 138.889 505.129 133.497 517.665C128.129 530.141 127.267 531.134 109.12 545.774C96.2552 556.155 92.3339 560.172 88.6182 566.78C84.0656 574.88 81.0017 588.542 83.7382 588.542C85.4779 588.542 91.1096 583.466 96.9849 576.603C99.4425 573.733 113.652 560.759 128.562 547.771C144.999 533.452 156.891 522.037 158.766 518.771C167.261 503.99 174.385 468.806 169.675 464.886C168.596 463.988 167.9 463.91 167.9 464.684ZM495.933 500.825C450.725 539.629 433.497 553.148 413.807 565.27C402.503 572.229 384.617 584.125 374.061 591.705C354.941 605.436 329.391 626.727 329.391 628.93C329.391 629.607 337.793 630.071 349.578 630.047L369.764 630.004L382.29 619.966C389.178 614.445 400.813 605.661 408.145 600.448C422.036 590.569 446.578 565.864 466.634 541.57C472.148 534.89 484.032 521.142 493.042 511.02C511.58 490.191 512.088 489.559 510.333 489.559C509.631 489.559 503.151 494.628 495.933 500.825ZM790.375 512.429C785.934 516.899 770.409 530.563 755.875 542.792C729.753 564.771 724.68 568.261 678.799 595.833C662.309 605.743 627.416 628.687 627.416 629.621C627.416 629.878 638.359 630.09 651.733 630.09H676.051L719.812 593.735C768.897 552.958 774.706 547.684 789.137 530.797C799.291 518.917 799.322 518.856 798.887 511.59L798.45 504.3L790.375 512.429ZM775.694 587.045C763.178 595.417 746.662 605.772 738.992 610.055C726.959 616.775 711.098 627.858 711.098 629.546C711.098 629.845 719.539 630.09 729.855 630.09H748.613L758.203 621.841C763.478 617.305 771.058 610.312 775.047 606.301C779.037 602.29 786.135 595.589 790.821 591.41C799.073 584.052 799.329 583.621 798.896 577.817L798.45 571.823L775.694 587.045ZM244.053 596.79C237.961 599.983 227.434 604.794 220.662 607.483C213.89 610.171 198.752 616.353 187.024 621.219L165.698 630.069L182.129 630.079L198.56 630.09L208.555 624.955C214.053 622.13 220.531 618.483 222.954 616.849C227.857 613.544 256.327 590.986 255.596 590.986C255.342 590.986 250.146 593.597 244.053 596.79Z"
              fill="#F2F2F2"/>
        <mask id="mask" fill="#F2F2F2">
            <path d="M19.6774 173.709C10.4974 193.101 9.68853 194.196 -3.46985 217.079L-12.7294 237.736L-19.065 251.013C-22.4764 262.443 -23.931 270.938 -23.3247 270.923C-17.9412 270.795 4.70428 265.594 10.4974 263.156C19.7567 259.258 40.2044 246.503 45.3795 241.394C53.755 233.127 98.8947 201.436 98.8947 203.822C98.8947 204.449 98.2987 205.269 97.5705 205.642C95.0468 206.938 80.0472 228.922 76.3065 236.809C74.2394 241.168 70.2242 251.159 67.3834 259.013C58.5175 283.52 50.4782 296.798 15.213 345.181C6.73467 356.813 -5.65317 372.292 -12.3139 379.58C-22.9665 391.235 -24.4258 393.439 -24.4258 397.881V402.932L-17.4523 398.289C-13.6162 395.735 -7.13742 391.074 -3.05317 387.93C7.98402 379.434 13.692 377.288 34.0458 373.982C47.3468 371.823 52.1049 369.427 63.7763 359.016C84.7716 340.289 124.313 314.891 160.791 296.706C187.782 283.25 202.433 273.457 213.057 261.769C225.507 248.073 227.16 243.103 233.934 198.963C236.688 181.017 240.34 166.022 243.509 159.644C244.514 157.621 312.086 -32.4162 263.1 68.9294L212.702 158.162L206.993 167.903C203.854 173.261 197.821 184.784 193.59 193.509C168.309 245.626 155.886 261.279 124.309 280.793C89.8718 302.075 82.7339 306.697 71.7349 314.843C65.2752 319.626 58.1725 324.639 55.9498 325.984L51.9111 328.427L53.4687 325.023C54.3261 323.15 57.6704 318.037 60.9003 313.66C74.0545 295.831 90.5956 272.412 94.0823 266.683C96.123 263.329 102.095 255.133 107.352 248.467C119.162 233.496 122.359 228.183 127.948 214.251C130.369 208.216 134.802 198.614 137.796 192.913C142.343 184.262 173.919 115.933 177.285 107.004C178.02 105.059 188.402 78.9676 177.285 92.8125L120.885 157.553L110.258 165.911C96.7073 176.566 92.1708 179.743 76.8732 189.292C48.8618 206.776 39.4014 213.942 11.484 238.823C3.84544 245.632 -2.40426 251.118 -2.40426 251.013C-2.40426 246.975 13.0313 212.331 21.1485 198.149C24.5251 192.251 30.0936 180.705 33.5246 172.489L71.7349 92.8125L45.3795 127.079L27.3263 157.553L19.6774 173.709ZM281.367 166.393C278.805 179.683 270.312 201.667 261.029 219.031C256.472 227.554 253.113 234.833 253.562 235.206C254.01 235.579 256.996 234.162 260.196 232.057C274.867 222.406 291.03 202.343 297.624 185.597C299.606 180.567 302.848 173.434 304.831 169.746C311.871 156.648 319.923 117.734 317.545 85.8902L285.315 154.078L281.367 166.393ZM335.142 162.621C326.675 176.405 323.524 193.425 322.087 233.151C320.594 274.452 320.588 274.469 302.165 292.289C290.658 303.419 271.238 325.189 258.473 341.265C252.173 349.201 244.411 358.668 241.223 362.304C232.054 372.761 234.439 373.262 246.809 363.477C253.067 358.525 267.144 348.077 278.088 340.256C301.041 323.857 317.817 309.512 330.887 295.105C341.801 283.078 343.971 279.161 351.696 257.547C356.818 243.215 363.646 229.859 380.065 202.058L383.667 195.961L383.687 210.067C383.701 220.436 382.922 226.572 380.748 233.234C368.962 269.346 364.621 285.041 364.621 291.551C364.621 299.607 360.438 312.095 354.368 322.162C352.144 325.851 347.626 336.002 344.329 344.72C341.032 353.438 335.268 366.332 331.52 373.374C323.273 388.866 318.876 398.98 320.386 398.98C320.999 398.98 322.608 397.196 323.962 395.017C325.314 392.838 331.398 384.744 337.482 377.032C356.941 352.36 363.955 342.652 374.469 325.82C380.126 316.767 387.788 304.695 391.499 298.995C406.314 276.234 412.587 251.98 414.683 209.374C415.441 193.95 416.458 175.98 416.943 169.441L428.444 103.635C428.747 101.905 426.598 100.855 425.419 102.158L413.524 118.427L381.033 157.553L374.843 165.693C371.439 170.17 366.05 178.538 362.87 184.288C353.387 201.429 348.55 209.452 348.51 208.104C348.456 206.262 355.186 177.836 357.88 168.527C361.224 156.973 378.916 81.7363 373.281 67.5449L368.123 78.9676L335.142 162.621ZM457.969 163.344C456.695 166.529 453.937 175.172 451.839 182.549C448.426 194.552 447.895 199.678 446.785 231.322C444.901 285.073 443 297.134 431.932 325.573C425.12 343.077 410.286 370.316 402.376 379.846C400.814 381.729 399.873 383.551 400.287 383.893C402.649 385.856 414.942 377.371 434.384 360.358C462.598 335.667 467.764 330.423 479.221 314.846C484.401 307.805 493.683 296.831 499.849 290.46C514.253 275.578 523.025 269.234 554.67 250.812C594.123 227.843 615.414 198.14 615.615 165.783L615.666 157.553L625.455 89.3516V67.5449L592.087 164.564C585.824 177.601 578.658 184.908 540.961 216.696C520.278 234.136 498.415 253.718 492.377 260.21C486.337 266.705 481.266 271.909 481.108 271.777C480.948 271.645 482.04 268.524 483.531 264.843C487.693 254.571 489.159 238.515 488.319 212.403C487.632 191.096 513.097 118.687 515.889 109.081C516.679 106.362 526.647 58.8921 517.095 54.3924L460.284 157.553L457.969 163.344ZM523.257 177.468C516.528 188.421 511.28 197.988 511.594 198.727C512.974 201.974 546.412 173.453 555.934 160.906L576.307 71.6989L566.603 85.8902L535.49 157.553L523.257 177.468ZM671.613 164.148C669.629 171.507 661.675 185.783 652.868 197.79C649.671 202.15 642.516 212.575 636.97 220.958C625.193 238.759 615.766 250.723 605.256 261.213C591.76 274.681 569.772 293.002 553.272 304.525C544.39 310.727 535.471 317.308 533.453 319.148L529.782 322.493L537.618 321.662C548.639 320.493 582.816 310.783 600.26 303.865C616.258 297.522 629.358 289.656 650.901 273.46C665.259 262.665 674.129 256.913 675.132 257.747C675.448 258.008 673.085 260.949 669.883 264.282C666.683 267.614 661.756 273.732 658.936 277.876C651.363 289.005 640.952 297.762 617.024 313.128C593.737 328.082 582.327 337.517 572.373 350.046C562.436 362.557 556.48 367.733 536.273 381.425C514.213 396.371 506.322 404.224 493.513 423.976C476.233 450.622 464.635 464.801 444.64 483.723C430.706 496.909 413.604 516.639 401.306 533.716L397.794 538.593L407.266 531.838C412.477 528.123 422.685 521.28 429.952 516.632C437.219 511.984 447.789 504.578 453.441 500.173C459.093 495.769 470.057 487.942 477.804 482.782C486.288 477.128 496.863 468.421 504.402 460.88C518.055 447.222 526.839 433.5 543.862 422.14C577.257 399.854 593.878 393.558 604.267 382.969C629.421 357.334 640.756 344.855 645.247 337.857C650.61 329.501 660.173 322.465 687.683 306.636C725.316 284.982 736.259 277.29 769.385 249.206L801.987 221.567L802.051 212.727C802.086 207.866 801.797 203.887 801.409 203.887C799.296 203.887 764.536 222.242 752.402 229.764C744.183 234.859 725.947 248.843 708.891 263.128C692.742 276.653 675.235 290.378 669.986 293.625L660.443 299.531L668.518 291.772C681.097 279.684 689.296 271.127 715.336 242.906C728.64 228.487 743.663 212.592 748.72 207.583C753.779 202.573 757.707 198.3 757.45 198.087C756.469 197.272 747.904 201.051 731.047 209.734C721.433 214.688 703.265 223.428 690.675 229.157C666.847 240 646.232 251.129 638.055 257.565C621.931 270.253 650.557 242.064 675.227 220.958C688.331 209.747 692.796 204.98 697.494 197.181C704.373 185.758 708.801 175.777 711.692 165.173L731.047 77.5831L722.271 85.8902L675.227 157.553L671.613 164.148ZM743.526 169.662C735.873 180.005 730.754 186.174 722.271 195.277C719.609 198.134 737.627 187.242 748.6 179.363C754.179 175.356 764.042 169.669 770.519 166.724C790.842 157.484 787.612 96.2742 783.856 94.8897L770.519 129.503L743.526 169.662ZM263.689 259.611C256.435 266.183 243.065 278.366 233.976 286.685C207.305 311.096 195.055 319.995 147.167 349.76C129.097 360.993 104.73 376.566 93.0223 384.37C64.4751 403.395 42.7589 416.499 23.2875 426.451C1.21314 437.735 -12.3771 445.491 -18.9204 450.541L-24.4258 454.789V466.059V477.329L-20.183 474.43C-3.00031 462.686 2.68418 459.354 15.1043 453.753C39.8081 442.611 44.2579 440.145 56.5943 430.748C72.1048 418.935 69.4637 421.985 42.3699 447.174C0.900433 485.727 -1.31053 488.313 -11.3186 509.939C-14.5763 516.981 -18.8587 525.933 -20.8348 529.834C-23.9472 535.98 -24.4258 538.81 -24.4258 551.068V565.211L-16.9517 554.951C-1.19601 533.323 6.46894 526.879 28.8575 516.44C36.2905 512.975 47.658 507.655 54.1176 504.619C60.5773 501.583 71.6923 494.913 78.8199 489.796L91.7759 480.493L84.5162 488.204C73.7873 499.601 53.0415 525.835 34.5434 551.396C19.1152 572.715 17.9715 574.757 13.7184 588.586C11.2432 596.633 7.65223 608.156 5.7393 614.192C3.82636 620.227 1.84883 628.047 1.34527 631.567L0.430639 637.969L7.45551 637.866L14.4789 637.764L27.2264 621.71C34.2366 612.881 44.3827 599.082 49.7735 591.045C62.4286 572.178 75.2524 556.662 98.1636 532.497C128.939 500.036 137.719 489.077 152.615 464.538C160.302 451.876 171.165 435.988 176.753 429.234C185.632 418.5 194.044 404.44 192.401 403.076C191.643 402.446 180.119 409.786 164.225 421.019C143.275 435.826 132.097 441.157 75.7178 463.228C66.3499 466.895 48.7458 477.596 35.85 487.461L26.3911 494.697L30.9143 489.21C45.7406 471.228 83.4224 434.96 110.722 412.397C125.939 399.821 130.911 396.495 176.704 368.27C218.32 342.62 226.132 335.593 242.741 308.876C249.246 298.412 258.408 283.814 263.1 276.437C272.301 261.976 278.847 249.296 277.632 248.288C277.216 247.943 270.941 253.038 263.689 259.611ZM765.764 306.763C732.474 335.444 687.686 376.467 663.895 400.069C632.936 430.781 612.583 457.953 600.307 484.958C595.147 496.31 588.856 505.998 579.727 516.645C563.74 535.296 550.324 544.901 516.57 561.864C501.753 569.311 492.485 576.463 484.442 586.662C477.812 595.068 455.247 630.499 453.515 635.225L452.509 637.969L474.263 637.964L496.016 637.96L501.055 629.867C511.061 613.795 525.719 597.422 547.502 577.986C559.558 567.229 572.89 554.276 577.129 549.203C581.367 544.128 584.833 540.214 584.83 540.504C584.826 540.794 583.116 544.873 581.028 549.567C578.94 554.262 574.96 563.589 572.184 570.296C569.408 577.002 564.869 586.887 562.097 592.262C557.148 601.863 553.027 614.394 554.435 615.565C555.451 616.407 567.576 605.47 582.995 589.805C595.694 576.903 613.492 562.914 638.451 546.216C644.927 541.884 652.185 536.205 654.581 533.596C658.997 528.787 698.582 495.307 699.85 495.307C700.897 495.307 683.556 516.928 681.776 517.841C680.924 518.279 675.202 525.048 669.064 532.883C656.996 548.283 650.283 555.091 624.918 577.641C615.85 585.704 603.879 597.011 598.319 602.766C587.811 613.645 568.687 635.91 568.687 637.267C568.687 637.695 576.45 637.892 585.937 637.703L603.188 637.359L616.847 620.288C641.581 589.378 648.045 582.157 662.905 568.839C672.833 559.94 683.465 548.343 695.662 533.106C712.819 511.675 715.214 509.301 743.626 485.552C760.075 471.804 779.937 514.52 787.765 507.143L801.998 493.731L802.057 472.53L802.115 451.33L795.013 456.847C784.985 464.638 775.77 472.995 756.357 491.902C734.935 512.766 725.331 460.111 706.764 469.828C676.584 485.624 645.435 503.929 637.043 510.801C632.298 514.686 624.479 521.98 619.665 527.01C614.853 532.039 610.581 536.429 610.171 536.764C608.998 537.725 627.212 509.029 633.774 499.575C637.033 494.88 645.259 484.546 652.052 476.61C658.845 468.673 667.079 458.248 670.35 453.443C695.163 416.991 722.568 385.993 757.814 354.509C771.693 342.109 784.924 326.836 790.188 317.132C797.856 303.003 804.996 276.662 801.014 277.195C800.408 277.275 784.547 290.58 765.764 306.763ZM526.647 338.504C498.459 351.075 460.945 375.394 442.925 392.78C430.443 404.822 413.877 425.753 404.182 441.731C395.285 456.393 367.457 507.825 368.123 508.376C368.368 508.579 371.809 505.315 375.77 501.123C379.731 496.93 393.452 483.893 406.259 472.151C437.953 443.093 448.831 430.893 461.175 410.564C471.37 393.772 494.347 370.095 517.095 352.939C541.057 334.866 543.101 333.162 540.793 333.169C539.582 333.174 533.216 335.574 526.647 338.504ZM294.116 361.031C258.894 386.211 233.528 415.51 220.094 446.534C217.915 451.564 212.25 467.476 207.503 481.894C195.224 519.196 189.741 530.435 174.781 548.957C167.909 557.468 158.732 565.444 123.574 593.463C116 599.499 106.871 607.729 103.289 611.753C92.8652 623.461 82.7456 635.88 82.7456 636.966C82.7456 637.517 91.5777 637.969 102.373 637.969H122.001L129.166 633.233C139.014 626.723 162.003 615.226 175.038 610.292C180.985 608.041 193.868 604.24 203.666 601.845C236.437 593.833 254.814 586.15 274.333 572.3C296.431 556.62 308.529 540.688 315.416 518.197C318.254 508.929 318.894 507.77 318.965 511.768C319.013 514.45 318.374 520.486 317.545 525.181C316.717 529.875 315.446 539.23 314.72 545.969C312.972 562.229 309.106 570.579 293.583 591.621C281.534 607.952 263.322 635.357 263.322 637.155C263.322 637.603 267.781 637.96 273.232 637.95L283.141 637.931L289.748 629.973C293.381 625.597 301.017 616.69 306.715 610.179C331.646 581.689 340.345 568.87 344.947 553.835C348.539 542.1 347.035 524.781 340.497 502.623C337.166 491.334 335.277 481.981 335.269 476.749C335.261 470.153 339.017 447.937 344.758 420.623C345.145 418.779 344.919 417.27 344.254 417.27C342.89 417.27 340.007 422.487 334.509 434.906C332.442 439.578 327.827 447.852 324.256 453.294C320.684 458.737 314.052 470.279 309.522 478.944C284.206 527.349 271.078 538.39 207.339 564.89L180.862 575.897L185.511 568.655C190.125 561.463 206.621 542.589 215.593 534.235C222.544 527.762 231.353 517.517 236.481 509.939C244.413 498.218 246.909 488.949 248.543 465.159C250.108 442.38 253.15 429.127 259.023 419.502C269.567 402.226 298.69 363.741 308.926 353.56C311.454 351.046 312.947 348.987 312.242 348.987C311.537 348.987 303.381 354.407 294.116 361.031ZM591.443 414.848C578.523 426.183 564.098 437.986 559.387 441.075C548.827 447.999 545.233 454.06 540.241 473.359C534.472 495.668 521.651 526.58 513.528 537.769C510.763 541.576 508.501 545.12 508.499 545.647C508.494 547.163 514.1 544.274 520.529 539.45C532.428 530.521 543.007 514.778 558.383 483.114C570.127 458.927 572.269 455.526 584.121 442.266C594.916 430.186 599.067 423.999 604.682 411.606C606.74 407.064 609.308 402.503 610.389 401.47C612.369 399.574 616.127 394.045 615.351 394.17C615.12 394.207 604.362 403.512 591.443 414.848ZM798.734 521.193C797.591 522.548 790.006 469.545 781.882 476.739C767.437 489.53 761.688 495.367 752.974 506.093C750.605 509.009 742.361 517.026 734.652 523.911C726.943 530.796 715.681 542.327 709.625 549.534C703.569 556.742 695.798 565.596 692.357 569.211C688.917 572.826 686.766 575.783 687.58 575.783C688.393 575.783 703.101 564.358 720.263 550.395C757.103 520.419 781.08 502.271 793.276 495.126L802.115 489.949V474.338C802.115 465.752 801.823 518.727 801.465 518.727C801.107 518.727 799.878 519.837 798.734 521.193ZM170.832 472.925C170.832 473.625 166.148 480.182 160.424 487.496C148.151 503.179 141.821 513.281 136.428 525.79C131.061 538.238 130.199 539.23 112.052 553.837C99.1869 564.195 95.2656 568.203 91.5498 574.798C86.9972 582.879 83.9333 596.511 86.6698 596.511C88.4095 596.511 94.0412 591.446 99.9165 584.599C102.374 581.736 116.584 568.79 131.494 555.83C147.931 541.543 159.822 530.152 161.697 526.894C170.193 512.145 177.316 477.038 172.607 473.126C171.528 472.23 170.832 472.152 170.832 472.925ZM498.864 508.987C453.657 547.705 436.429 561.195 416.739 573.29C405.434 580.234 387.548 592.105 376.993 599.668C357.872 613.369 332.323 634.613 332.323 636.811C332.323 637.487 340.725 637.95 352.509 637.926L372.696 637.883L385.221 627.866C392.11 622.358 403.744 613.593 411.076 608.391C424.967 598.534 449.51 573.883 469.565 549.643C475.08 542.977 486.964 529.259 495.974 519.16C514.511 498.376 515.019 497.746 513.265 497.746C512.563 497.746 506.083 502.803 498.864 508.987ZM793.307 520.565C788.866 525.026 773.34 538.659 758.806 550.862C732.684 572.793 727.612 576.275 681.731 603.787C665.241 613.675 630.347 636.569 630.347 637.5C630.347 637.758 641.291 637.969 654.665 637.969H678.983L722.744 601.694C771.828 561.006 777.638 555.743 792.069 538.893C802.222 527.039 802.253 526.978 801.819 519.728L801.381 512.454L793.307 520.565ZM778.626 595.018C766.11 603.371 749.594 613.704 741.923 617.978C729.891 624.683 714.029 635.742 714.029 637.426C714.029 637.725 722.471 637.969 732.787 637.969H751.545L761.135 629.738C766.41 625.212 773.989 618.234 777.978 614.232C781.969 610.23 789.067 603.543 793.753 599.373C802.005 592.031 802.261 591.601 801.828 585.81L801.381 579.83L778.626 595.018ZM246.985 604.742C240.892 607.928 230.366 612.728 223.594 615.411C216.821 618.094 201.684 624.262 189.955 629.117L168.63 637.948L185.061 637.958L201.492 637.969L211.486 632.845C216.984 630.026 223.463 626.387 225.885 624.757C230.789 621.459 259.258 598.95 258.527 598.95C258.273 598.95 253.078 601.556 246.985 604.742Z"/>
        </mask>
        <path d="M19.6774 173.709C10.4974 193.101 9.68853 194.196 -3.46985 217.079L-12.7294 237.736L-19.065 251.013C-22.4764 262.443 -23.931 270.938 -23.3247 270.923C-17.9412 270.795 4.70428 265.594 10.4974 263.156C19.7567 259.258 40.2044 246.503 45.3795 241.394C53.755 233.127 98.8947 201.436 98.8947 203.822C98.8947 204.449 98.2987 205.269 97.5705 205.642C95.0468 206.938 80.0472 228.922 76.3065 236.809C74.2394 241.168 70.2242 251.159 67.3834 259.013C58.5175 283.52 50.4782 296.798 15.213 345.181C6.73467 356.813 -5.65317 372.292 -12.3139 379.58C-22.9665 391.235 -24.4258 393.439 -24.4258 397.881V402.932L-17.4523 398.289C-13.6162 395.735 -7.13742 391.074 -3.05317 387.93C7.98402 379.434 13.692 377.288 34.0458 373.982C47.3468 371.823 52.1049 369.427 63.7763 359.016C84.7716 340.289 124.313 314.891 160.791 296.706C187.782 283.25 202.433 273.457 213.057 261.769C225.507 248.073 227.16 243.103 233.934 198.963C236.688 181.017 240.34 166.022 243.509 159.644C244.514 157.621 312.086 -32.4162 263.1 68.9294L212.702 158.162L206.993 167.903C203.854 173.261 197.821 184.784 193.59 193.509C168.309 245.626 155.886 261.279 124.309 280.793C89.8718 302.075 82.7339 306.697 71.7349 314.843C65.2752 319.626 58.1725 324.639 55.9498 325.984L51.9111 328.427L53.4687 325.023C54.3261 323.15 57.6704 318.037 60.9003 313.66C74.0545 295.831 90.5956 272.412 94.0823 266.683C96.123 263.329 102.095 255.133 107.352 248.467C119.162 233.496 122.359 228.183 127.948 214.251C130.369 208.216 134.802 198.614 137.796 192.913C142.343 184.262 173.919 115.933 177.285 107.004C178.02 105.059 188.402 78.9676 177.285 92.8125L120.885 157.553L110.258 165.911C96.7073 176.566 92.1708 179.743 76.8732 189.292C48.8618 206.776 39.4014 213.942 11.484 238.823C3.84544 245.632 -2.40426 251.118 -2.40426 251.013C-2.40426 246.975 13.0313 212.331 21.1485 198.149C24.5251 192.251 30.0936 180.705 33.5246 172.489L71.7349 92.8125L45.3795 127.079L27.3263 157.553L19.6774 173.709ZM281.367 166.393C278.805 179.683 270.312 201.667 261.029 219.031C256.472 227.554 253.113 234.833 253.562 235.206C254.01 235.579 256.996 234.162 260.196 232.057C274.867 222.406 291.03 202.343 297.624 185.597C299.606 180.567 302.848 173.434 304.831 169.746C311.871 156.648 319.923 117.734 317.545 85.8902L285.315 154.078L281.367 166.393ZM335.142 162.621C326.675 176.405 323.524 193.425 322.087 233.151C320.594 274.452 320.588 274.469 302.165 292.289C290.658 303.419 271.238 325.189 258.473 341.265C252.173 349.201 244.411 358.668 241.223 362.304C232.054 372.761 234.439 373.262 246.809 363.477C253.067 358.525 267.144 348.077 278.088 340.256C301.041 323.857 317.817 309.512 330.887 295.105C341.801 283.078 343.971 279.161 351.696 257.547C356.818 243.215 363.646 229.859 380.065 202.058L383.667 195.961L383.687 210.067C383.701 220.436 382.922 226.572 380.748 233.234C368.962 269.346 364.621 285.041 364.621 291.551C364.621 299.607 360.438 312.095 354.368 322.162C352.144 325.851 347.626 336.002 344.329 344.72C341.032 353.438 335.268 366.332 331.52 373.374C323.273 388.866 318.876 398.98 320.386 398.98C320.999 398.98 322.608 397.196 323.962 395.017C325.314 392.838 331.398 384.744 337.482 377.032C356.941 352.36 363.955 342.652 374.469 325.82C380.126 316.767 387.788 304.695 391.499 298.995C406.314 276.234 412.587 251.98 414.683 209.374C415.441 193.95 416.458 175.98 416.943 169.441L428.444 103.635C428.747 101.905 426.598 100.855 425.419 102.158L413.524 118.427L381.033 157.553L374.843 165.693C371.439 170.17 366.05 178.538 362.87 184.288C353.387 201.429 348.55 209.452 348.51 208.104C348.456 206.262 355.186 177.836 357.88 168.527C361.224 156.973 378.916 81.7363 373.281 67.5449L368.123 78.9676L335.142 162.621ZM457.969 163.344C456.695 166.529 453.937 175.172 451.839 182.549C448.426 194.552 447.895 199.678 446.785 231.322C444.901 285.073 443 297.134 431.932 325.573C425.12 343.077 410.286 370.316 402.376 379.846C400.814 381.729 399.873 383.551 400.287 383.893C402.649 385.856 414.942 377.371 434.384 360.358C462.598 335.667 467.764 330.423 479.221 314.846C484.401 307.805 493.683 296.831 499.849 290.46C514.253 275.578 523.025 269.234 554.67 250.812C594.123 227.843 615.414 198.14 615.615 165.783L615.666 157.553L625.455 89.3516V67.5449L592.087 164.564C585.824 177.601 578.658 184.908 540.961 216.696C520.278 234.136 498.415 253.718 492.377 260.21C486.337 266.705 481.266 271.909 481.108 271.777C480.948 271.645 482.04 268.524 483.531 264.843C487.693 254.571 489.159 238.515 488.319 212.403C487.632 191.096 513.097 118.687 515.889 109.081C516.679 106.362 526.647 58.8921 517.095 54.3924L460.284 157.553L457.969 163.344ZM523.257 177.468C516.528 188.421 511.28 197.988 511.594 198.727C512.974 201.974 546.412 173.453 555.934 160.906L576.307 71.6989L566.603 85.8902L535.49 157.553L523.257 177.468ZM671.613 164.148C669.629 171.507 661.675 185.783 652.868 197.79C649.671 202.15 642.516 212.575 636.97 220.958C625.193 238.759 615.766 250.723 605.256 261.213C591.76 274.681 569.772 293.002 553.272 304.525C544.39 310.727 535.471 317.308 533.453 319.148L529.782 322.493L537.618 321.662C548.639 320.493 582.816 310.783 600.26 303.865C616.258 297.522 629.358 289.656 650.901 273.46C665.259 262.665 674.129 256.913 675.132 257.747C675.448 258.008 673.085 260.949 669.883 264.282C666.683 267.614 661.756 273.732 658.936 277.876C651.363 289.005 640.952 297.762 617.024 313.128C593.737 328.082 582.327 337.517 572.373 350.046C562.436 362.557 556.48 367.733 536.273 381.425C514.213 396.371 506.322 404.224 493.513 423.976C476.233 450.622 464.635 464.801 444.64 483.723C430.706 496.909 413.604 516.639 401.306 533.716L397.794 538.593L407.266 531.838C412.477 528.123 422.685 521.28 429.952 516.632C437.219 511.984 447.789 504.578 453.441 500.173C459.093 495.769 470.057 487.942 477.804 482.782C486.288 477.128 496.863 468.421 504.402 460.88C518.055 447.222 526.839 433.5 543.862 422.14C577.257 399.854 593.878 393.558 604.267 382.969C629.421 357.334 640.756 344.855 645.247 337.857C650.61 329.501 660.173 322.465 687.683 306.636C725.316 284.982 736.259 277.29 769.385 249.206L801.987 221.567L802.051 212.727C802.086 207.866 801.797 203.887 801.409 203.887C799.296 203.887 764.536 222.242 752.402 229.764C744.183 234.859 725.947 248.843 708.891 263.128C692.742 276.653 675.235 290.378 669.986 293.625L660.443 299.531L668.518 291.772C681.097 279.684 689.296 271.127 715.336 242.906C728.64 228.487 743.663 212.592 748.72 207.583C753.779 202.573 757.707 198.3 757.45 198.087C756.469 197.272 747.904 201.051 731.047 209.734C721.433 214.688 703.265 223.428 690.675 229.157C666.847 240 646.232 251.129 638.055 257.565C621.931 270.253 650.557 242.064 675.227 220.958C688.331 209.747 692.796 204.98 697.494 197.181C704.373 185.758 708.801 175.777 711.692 165.173L731.047 77.5831L722.271 85.8902L675.227 157.553L671.613 164.148ZM743.526 169.662C735.873 180.005 730.754 186.174 722.271 195.277C719.609 198.134 737.627 187.242 748.6 179.363C754.179 175.356 764.042 169.669 770.519 166.724C790.842 157.484 787.612 96.2742 783.856 94.8897L770.519 129.503L743.526 169.662ZM263.689 259.611C256.435 266.183 243.065 278.366 233.976 286.685C207.305 311.096 195.055 319.995 147.167 349.76C129.097 360.993 104.73 376.566 93.0223 384.37C64.4751 403.395 42.7589 416.499 23.2875 426.451C1.21314 437.735 -12.3771 445.491 -18.9204 450.541L-24.4258 454.789V466.059V477.329L-20.183 474.43C-3.00031 462.686 2.68418 459.354 15.1043 453.753C39.8081 442.611 44.2579 440.145 56.5943 430.748C72.1048 418.935 69.4637 421.985 42.3699 447.174C0.900433 485.727 -1.31053 488.313 -11.3186 509.939C-14.5763 516.981 -18.8587 525.933 -20.8348 529.834C-23.9472 535.98 -24.4258 538.81 -24.4258 551.068V565.211L-16.9517 554.951C-1.19601 533.323 6.46894 526.879 28.8575 516.44C36.2905 512.975 47.658 507.655 54.1176 504.619C60.5773 501.583 71.6923 494.913 78.8199 489.796L91.7759 480.493L84.5162 488.204C73.7873 499.601 53.0415 525.835 34.5434 551.396C19.1152 572.715 17.9715 574.757 13.7184 588.586C11.2432 596.633 7.65223 608.156 5.7393 614.192C3.82636 620.227 1.84883 628.047 1.34527 631.567L0.430639 637.969L7.45551 637.866L14.4789 637.764L27.2264 621.71C34.2366 612.881 44.3827 599.082 49.7735 591.045C62.4286 572.178 75.2524 556.662 98.1636 532.497C128.939 500.036 137.719 489.077 152.615 464.538C160.302 451.876 171.165 435.988 176.753 429.234C185.632 418.5 194.044 404.44 192.401 403.076C191.643 402.446 180.119 409.786 164.225 421.019C143.275 435.826 132.097 441.157 75.7178 463.228C66.3499 466.895 48.7458 477.596 35.85 487.461L26.3911 494.697L30.9143 489.21C45.7406 471.228 83.4224 434.96 110.722 412.397C125.939 399.821 130.911 396.495 176.704 368.27C218.32 342.62 226.132 335.593 242.741 308.876C249.246 298.412 258.408 283.814 263.1 276.437C272.301 261.976 278.847 249.296 277.632 248.288C277.216 247.943 270.941 253.038 263.689 259.611ZM765.764 306.763C732.474 335.444 687.686 376.467 663.895 400.069C632.936 430.781 612.583 457.953 600.307 484.958C595.147 496.31 588.856 505.998 579.727 516.645C563.74 535.296 550.324 544.901 516.57 561.864C501.753 569.311 492.485 576.463 484.442 586.662C477.812 595.068 455.247 630.499 453.515 635.225L452.509 637.969L474.263 637.964L496.016 637.96L501.055 629.867C511.061 613.795 525.719 597.422 547.502 577.986C559.558 567.229 572.89 554.276 577.129 549.203C581.367 544.128 584.833 540.214 584.83 540.504C584.826 540.794 583.116 544.873 581.028 549.567C578.94 554.262 574.96 563.589 572.184 570.296C569.408 577.002 564.869 586.887 562.097 592.262C557.148 601.863 553.027 614.394 554.435 615.565C555.451 616.407 567.576 605.47 582.995 589.805C595.694 576.903 613.492 562.914 638.451 546.216C644.927 541.884 652.185 536.205 654.581 533.596C658.997 528.787 698.582 495.307 699.85 495.307C700.897 495.307 683.556 516.928 681.776 517.841C680.924 518.279 675.202 525.048 669.064 532.883C656.996 548.283 650.283 555.091 624.918 577.641C615.85 585.704 603.879 597.011 598.319 602.766C587.811 613.645 568.687 635.91 568.687 637.267C568.687 637.695 576.45 637.892 585.937 637.703L603.188 637.359L616.847 620.288C641.581 589.378 648.045 582.157 662.905 568.839C672.833 559.94 683.465 548.343 695.662 533.106C712.819 511.675 715.214 509.301 743.626 485.552C760.075 471.804 779.937 514.52 787.765 507.143L801.998 493.731L802.057 472.53L802.115 451.33L795.013 456.847C784.985 464.638 775.77 472.995 756.357 491.902C734.935 512.766 725.331 460.111 706.764 469.828C676.584 485.624 645.435 503.929 637.043 510.801C632.298 514.686 624.479 521.98 619.665 527.01C614.853 532.039 610.581 536.429 610.171 536.764C608.998 537.725 627.212 509.029 633.774 499.575C637.033 494.88 645.259 484.546 652.052 476.61C658.845 468.673 667.079 458.248 670.35 453.443C695.163 416.991 722.568 385.993 757.814 354.509C771.693 342.109 784.924 326.836 790.188 317.132C797.856 303.003 804.996 276.662 801.014 277.195C800.408 277.275 784.547 290.58 765.764 306.763ZM526.647 338.504C498.459 351.075 460.945 375.394 442.925 392.78C430.443 404.822 413.877 425.753 404.182 441.731C395.285 456.393 367.457 507.825 368.123 508.376C368.368 508.579 371.809 505.315 375.77 501.123C379.731 496.93 393.452 483.893 406.259 472.151C437.953 443.093 448.831 430.893 461.175 410.564C471.37 393.772 494.347 370.095 517.095 352.939C541.057 334.866 543.101 333.162 540.793 333.169C539.582 333.174 533.216 335.574 526.647 338.504ZM294.116 361.031C258.894 386.211 233.528 415.51 220.094 446.534C217.915 451.564 212.25 467.476 207.503 481.894C195.224 519.196 189.741 530.435 174.781 548.957C167.909 557.468 158.732 565.444 123.574 593.463C116 599.499 106.871 607.729 103.289 611.753C92.8652 623.461 82.7456 635.88 82.7456 636.966C82.7456 637.517 91.5777 637.969 102.373 637.969H122.001L129.166 633.233C139.014 626.723 162.003 615.226 175.038 610.292C180.985 608.041 193.868 604.24 203.666 601.845C236.437 593.833 254.814 586.15 274.333 572.3C296.431 556.62 308.529 540.688 315.416 518.197C318.254 508.929 318.894 507.77 318.965 511.768C319.013 514.45 318.374 520.486 317.545 525.181C316.717 529.875 315.446 539.23 314.72 545.969C312.972 562.229 309.106 570.579 293.583 591.621C281.534 607.952 263.322 635.357 263.322 637.155C263.322 637.603 267.781 637.96 273.232 637.95L283.141 637.931L289.748 629.973C293.381 625.597 301.017 616.69 306.715 610.179C331.646 581.689 340.345 568.87 344.947 553.835C348.539 542.1 347.035 524.781 340.497 502.623C337.166 491.334 335.277 481.981 335.269 476.749C335.261 470.153 339.017 447.937 344.758 420.623C345.145 418.779 344.919 417.27 344.254 417.27C342.89 417.27 340.007 422.487 334.509 434.906C332.442 439.578 327.827 447.852 324.256 453.294C320.684 458.737 314.052 470.279 309.522 478.944C284.206 527.349 271.078 538.39 207.339 564.89L180.862 575.897L185.511 568.655C190.125 561.463 206.621 542.589 215.593 534.235C222.544 527.762 231.353 517.517 236.481 509.939C244.413 498.218 246.909 488.949 248.543 465.159C250.108 442.38 253.15 429.127 259.023 419.502C269.567 402.226 298.69 363.741 308.926 353.56C311.454 351.046 312.947 348.987 312.242 348.987C311.537 348.987 303.381 354.407 294.116 361.031ZM591.443 414.848C578.523 426.183 564.098 437.986 559.387 441.075C548.827 447.999 545.233 454.06 540.241 473.359C534.472 495.668 521.651 526.58 513.528 537.769C510.763 541.576 508.501 545.12 508.499 545.647C508.494 547.163 514.1 544.274 520.529 539.45C532.428 530.521 543.007 514.778 558.383 483.114C570.127 458.927 572.269 455.526 584.121 442.266C594.916 430.186 599.067 423.999 604.682 411.606C606.74 407.064 609.308 402.503 610.389 401.47C612.369 399.574 616.127 394.045 615.351 394.17C615.12 394.207 604.362 403.512 591.443 414.848ZM798.734 521.193C797.591 522.548 790.006 469.545 781.882 476.739C767.437 489.53 761.688 495.367 752.974 506.093C750.605 509.009 742.361 517.026 734.652 523.911C726.943 530.796 715.681 542.327 709.625 549.534C703.569 556.742 695.798 565.596 692.357 569.211C688.917 572.826 686.766 575.783 687.58 575.783C688.393 575.783 703.101 564.358 720.263 550.395C757.103 520.419 781.08 502.271 793.276 495.126L802.115 489.949V474.338C802.115 465.752 801.823 518.727 801.465 518.727C801.107 518.727 799.878 519.837 798.734 521.193ZM170.832 472.925C170.832 473.625 166.148 480.182 160.424 487.496C148.151 503.179 141.821 513.281 136.428 525.79C131.061 538.238 130.199 539.23 112.052 553.837C99.1869 564.195 95.2656 568.203 91.5498 574.798C86.9972 582.879 83.9333 596.511 86.6698 596.511C88.4095 596.511 94.0412 591.446 99.9165 584.599C102.374 581.736 116.584 568.79 131.494 555.83C147.931 541.543 159.822 530.152 161.697 526.894C170.193 512.145 177.316 477.038 172.607 473.126C171.528 472.23 170.832 472.152 170.832 472.925ZM498.864 508.987C453.657 547.705 436.429 561.195 416.739 573.29C405.434 580.234 387.548 592.105 376.993 599.668C357.872 613.369 332.323 634.613 332.323 636.811C332.323 637.487 340.725 637.95 352.509 637.926L372.696 637.883L385.221 627.866C392.11 622.358 403.744 613.593 411.076 608.391C424.967 598.534 449.51 573.883 469.565 549.643C475.08 542.977 486.964 529.259 495.974 519.16C514.511 498.376 515.019 497.746 513.265 497.746C512.563 497.746 506.083 502.803 498.864 508.987ZM793.307 520.565C788.866 525.026 773.34 538.659 758.806 550.862C732.684 572.793 727.612 576.275 681.731 603.787C665.241 613.675 630.347 636.569 630.347 637.5C630.347 637.758 641.291 637.969 654.665 637.969H678.983L722.744 601.694C771.828 561.006 777.638 555.743 792.069 538.893C802.222 527.039 802.253 526.978 801.819 519.728L801.381 512.454L793.307 520.565ZM778.626 595.018C766.11 603.371 749.594 613.704 741.923 617.978C729.891 624.683 714.029 635.742 714.029 637.426C714.029 637.725 722.471 637.969 732.787 637.969H751.545L761.135 629.738C766.41 625.212 773.989 618.234 777.978 614.232C781.969 610.23 789.067 603.543 793.753 599.373C802.005 592.031 802.261 591.601 801.828 585.81L801.381 579.83L778.626 595.018ZM246.985 604.742C240.892 607.928 230.366 612.728 223.594 615.411C216.821 618.094 201.684 624.262 189.955 629.117L168.63 637.948L185.061 637.958L201.492 637.969L211.486 632.845C216.984 630.026 223.463 626.387 225.885 624.757C230.789 621.459 259.258 598.95 258.527 598.95C258.273 598.95 253.078 601.556 246.985 604.742Z"
              stroke="#F2F2F2" stroke-width="2" mask="url(#mask)"/>
    </g>
    <defs>
        <clipPath id="pattern">
            <rect y="30" width="377" height="337" fill="#F2F2F2"/>
        </clipPath>
    </defs>
</svg>
