<svg width="20" height="21" viewBox="0 0 20 21" fill="none" xmlns="http://www.w3.org/2000/svg">
<path fill-rule="evenodd" clip-rule="evenodd" d="M9.04955 0.524281C5.91921 0.849749 3.17823 2.55176 1.51165 5.20489C-0.391491 8.23463 -0.506333 12.1612 1.21657 15.2962C1.99856 16.7192 3.12143 17.9404 4.49222 18.8588C5.43994 19.4937 6.84722 20.0835 7.93614 20.3021C8.77132 20.4698 9.08964 20.5002 10.0074 20.5C10.9319 20.4998 11.3106 20.4636 12.089 20.3013C15.5316 19.5831 18.4035 17.0063 19.5124 13.6407C19.8703 12.5542 20 11.7196 20 10.5019C20 9.32442 19.8767 8.4958 19.5488 7.46875C19.0615 5.94259 18.2568 4.61763 17.1157 3.46284C15.552 1.88039 13.622 0.906498 11.396 0.576726C10.9162 0.505613 9.52746 0.474616 9.04955 0.524281ZM11.1027 1.98751C13.6874 2.33486 15.9218 3.77398 17.301 5.97977C17.9366 6.99648 18.3832 8.27999 18.5335 9.52245C18.5852 9.9494 18.5852 11.0544 18.5335 11.4814C18.2978 13.4299 17.4471 15.1865 16.0703 16.5675C14.7015 17.9404 12.9354 18.7968 10.9863 19.0329C10.5081 19.0908 9.4267 19.0822 8.92908 19.0165C5.62714 18.5808 2.89691 16.3323 1.86991 13.203C1.55566 12.2455 1.44124 11.5246 1.44124 10.5019C1.44124 9.47924 1.55566 8.75829 1.86991 7.80079C2.8896 4.69375 5.60195 2.44378 8.8731 1.99143C9.3805 1.92125 10.5937 1.91914 11.1027 1.98751ZM9.81186 4.8692C9.14393 5.17135 8.98352 5.99789 9.49374 6.50844C9.92792 6.94282 10.5648 6.91989 10.9737 6.45513C11.3537 6.02313 11.2894 5.34163 10.836 4.99558C10.5458 4.77414 10.1342 4.72334 9.81186 4.8692ZM8.39879 7.99183C8.18933 8.12474 8.07668 8.33185 8.07668 8.58417C8.07668 8.83649 8.18933 9.0436 8.39879 9.17652C8.57207 9.28645 8.58639 9.28864 9.13502 9.28864H9.69452V11.676V14.0634H8.97343C8.20615 14.0634 8.09999 14.0824 7.92108 14.2518C7.75801 14.4062 7.69965 14.5434 7.69965 14.7723C7.69965 15.0338 7.82951 15.2645 8.04508 15.3857L8.20255 15.4742L10.4447 15.4635L12.6868 15.4528L12.8148 15.3614C13.1908 15.0931 13.1908 14.4427 12.8148 14.1743C12.6927 14.0872 12.6511 14.0824 11.9153 14.0709L11.1437 14.0589L11.133 11.211L11.1222 8.36316L11.0146 8.20047C10.8132 7.89606 10.7404 7.8797 9.5864 7.8797H8.57551L8.39879 7.99183Z" fill="#252525"/>
</svg>
