<svg width="26" height="25" viewBox="0 0 26 25" fill="none" xmlns="http://www.w3.org/2000/svg">
<path fill-rule="evenodd" clip-rule="evenodd" d="M1.2844 0.0307867C0.968194 0.104677 0.622926 0.460427 0.545451 0.792053C0.49582 1.00462 0.498556 1.08928 0.562207 1.3087C0.636262 1.56379 0.789552 1.72234 6.08732 7.02321L11.5362 12.4754L6.11521 17.9082C1.89076 22.1419 0.672411 23.3896 0.595424 23.5612C0.460111 23.863 0.468269 24.1254 0.622682 24.4357C0.84099 24.8746 1.26173 25.0735 1.76463 24.9755L2.03331 24.9231L7.51436 19.437L12.9954 13.9509L18.481 19.4363L23.9667 24.9217L24.2354 24.9748C24.7374 25.0739 25.1588 24.8751 25.3773 24.4357C25.5317 24.1254 25.5399 23.863 25.4046 23.5612C25.3276 23.3896 24.1092 22.1419 19.8849 17.9083L14.464 12.4756L19.913 7.02277C25.1671 1.76491 25.3646 1.56076 25.4364 1.3134C25.6333 0.634779 25.1564 -0.00273315 24.4552 0.00176878C24.2714 0.0029432 24.0983 0.0366098 23.9911 0.092052C23.8971 0.140692 21.3856 2.6169 18.4101 5.59478L13 11.0091L7.58993 5.59478C4.61441 2.6169 2.11073 0.145879 2.02622 0.103649C1.81681 -0.00111833 1.53802 -0.0284724 1.2844 0.0307867Z" fill="#252525"/>
</svg>
